<svg xmlns="http://www.w3.org/2000/svg" id="drag-indicator" height="24px" viewBox="0 -960 960 960" width="24px" fill="currentColor">
    <path id="drag-indicator" fill="currentColor" d="M349.91-160q-28.91 0-49.41-20.59-20.5-20.59-20.5-49.5t20.59-49.41q20.59-20.5 49.5-20.5t49.41 20.59q20.5 20.59 20.5 49.5t-20.59 49.41q-20.59 20.5-49.5 20.5Zm260 0q-28.91 0-49.41-20.59-20.5-20.59-20.5-49.5t20.59-49.41q20.59-20.5 49.5-20.5t49.41 20.59q20.5 20.59 20.5 49.5t-20.59 49.41q-20.59 20.5-49.5 20.5Zm-260-250q-28.91 0-49.41-20.59-20.5-20.59-20.5-49.5t20.59-49.41q20.59-20.5 49.5-20.5t49.41 20.59q20.5 20.59 20.5 49.5t-20.59 49.41q-20.59 20.5-49.5 20.5Zm260 0q-28.91 0-49.41-20.59-20.5-20.59-20.5-49.5t20.59-49.41q20.59-20.5 49.5-20.5t49.41 20.59q20.5 20.59 20.5 49.5t-20.59 49.41q-20.59 20.5-49.5 20.5Zm-260-250q-28.91 0-49.41-20.59-20.5-20.59-20.5-49.5t20.59-49.41q20.59-20.5 49.5-20.5t49.41 20.59q20.5 20.59 20.5 49.5t-20.59 49.41q-20.59 20.5-49.5 20.5Zm260 0q-28.91 0-49.41-20.59-20.5-20.59-20.5-49.5t20.59-49.41q20.59-20.5 49.5-20.5t49.41 20.59q20.5 20.59 20.5 49.5t-20.59 49.41q-20.59 20.5-49.5 20.5Z"/>
</svg>